<?xml version="1.0" encoding="UTF-8" standalone="no"?>
<!-- Generator: Adobe Illustrator 16.2.1, SVG Export Plug-In . SVG Version: 6.00 Build 0)  -->

<svg
   xmlns:dc="http://purl.org/dc/elements/1.1/"
   xmlns:cc="http://creativecommons.org/ns#"
   xmlns:rdf="http://www.w3.org/1999/02/22-rdf-syntax-ns#"
   xmlns:svg="http://www.w3.org/2000/svg"
   xmlns="http://www.w3.org/2000/svg"
   xmlns:sodipodi="http://sodipodi.sourceforge.net/DTD/sodipodi-0.dtd"
   xmlns:inkscape="http://www.inkscape.org/namespaces/inkscape"
   version="1.1"
   id="Layer_1"
   x="0px"
   y="0px"
   width="512px"
   height="512px"
   viewBox="0 0 512 512"
   style="enable-background:new 0 0 512 512;"
   xml:space="preserve"
   inkscape:version="0.48.3.1 r9886"
   sodipodi:docname="clipboard-hover.svg"><metadata
   id="metadata3008"><rdf:RDF><cc:Work
       rdf:about=""><dc:format>image/svg+xml</dc:format><dc:type
         rdf:resource="http://purl.org/dc/dcmitype/StillImage" /></cc:Work></rdf:RDF></metadata><defs
   id="defs3006" /><sodipodi:namedview
   pagecolor="#ffffff"
   bordercolor="#666666"
   borderopacity="1"
   objecttolerance="10"
   gridtolerance="10"
   guidetolerance="10"
   inkscape:pageopacity="0"
   inkscape:pageshadow="2"
   inkscape:window-width="1215"
   inkscape:window-height="734"
   id="namedview3004"
   showgrid="false"
   inkscape:snap-global="false"
   inkscape:zoom="1.2070312"
   inkscape:cx="256"
   inkscape:cy="256"
   inkscape:window-x="389"
   inkscape:window-y="132"
   inkscape:window-maximized="0"
   inkscape:current-layer="Layer_1" />
<g
   id="g2986">
	<g
   id="g2988">
		<path
   d="M160,160h192c-1.7-20-9.7-35.2-27.9-40.1c-0.4-0.1-0.9-0.3-1.3-0.4c-12-3.4-20.8-7.5-20.8-20.7V78.2    c0-25.5-20.5-46.3-46-46.3c-25.5,0-46,20.7-46,46.3v20.6c0,13.1-8.8,17.2-20.8,20.6c-0.4,0.1-0.9,0.4-1.4,0.5    C169.6,124.8,161.9,140,160,160z M256,64.4c7.6,0,13.8,6.2,13.8,13.8c0,7.7-6.2,13.8-13.8,13.8c-7.6,0-13.8-6.2-13.8-13.8    C242.2,70.6,248.4,64.4,256,64.4z"
   id="path2990" />
		<path
   d="M404.6,63H331v14.5c0,10.6,8.7,18.5,19,18.5h37.2c6.7,0,12.1,5.7,12.4,12.5l0.1,327.2c-0.3,6.4-5.3,11.6-11.5,12.1    l-264.4,0.1c-6.2-0.5-11.1-5.7-11.5-12.1l-0.1-327.3c0.3-6.8,5.9-12.5,12.5-12.5H162c10.3,0,19-7.9,19-18.5V63h-73.6    C92.3,63,80,76.1,80,91.6V452c0,15.5,12.3,28,27.4,28H256h148.6c15.1,0,27.4-12.5,27.4-28V91.6C432,76.1,419.7,63,404.6,63z"
   id="path2992" />
	</g>
	<rect
   x="144"
   y="192"
   width="112"
   height="16"
   id="rect2994" />
	<rect
   x="144"
   y="288"
   width="160"
   height="16"
   id="rect2996" />
	<rect
   x="144"
   y="384"
   width="129"
   height="16"
   id="rect2998" />
	<rect
   x="144"
   y="336"
   width="176"
   height="16"
   id="rect3000" />
	<rect
   x="144"
   y="240"
   width="208"
   height="16"
   id="rect3002" />
</g>
<path
   style="fill:#e34125;fill-opacity:1"
   d="m 96.517799,476.80442 c -8.191634,-3.93279 -13.65987,-10.92995 -15.291379,-19.56688 -0.686612,-3.6348 -0.873241,-54.29406 -0.694358,-188.47896 l 0.244637,-183.508095 2.385624,-5.164996 c 2.769251,-5.995565 8.589752,-11.877327 14.418226,-14.569975 3.816561,-1.763182 4.834951,-1.811213 43.467991,-2.050098 l 39.55987,-0.244617 -0.0182,8.943646 c -0.0207,10.16819 -1.18343,13.765424 -5.88711,18.21322 -4.84001,4.576706 -5.84886,4.745721 -31.11092,5.212066 -25.69881,0.474409 -25.34383,0.400896 -29.62514,6.135099 l -1.70815,2.28782 -0.21313,166.94706 c -0.23751,186.04256 -0.7297,170.22469 5.44322,174.93301 l 2.92572,2.23155 135.16707,0 135.16706,0 3.33105,-2.20438 c 6.64562,-4.39787 6.07545,11.89314 6.07545,-173.58994 l 0,-165.60216 -1.86408,-3.64808 c -3.60301,-7.05126 -3.40306,-7.001142 -29.88345,-7.489979 -25.26206,-0.466345 -26.27091,-0.63536 -31.11092,-5.212066 -4.70368,-4.447796 -5.86642,-8.04503 -5.88711,-18.21322 l -0.0182,-8.943646 39.55987,0.244617 c 38.63304,0.238885 39.65143,0.286916 43.46799,2.050098 5.82848,2.692648 11.64898,8.57441 14.41823,14.569975 l 2.38562,5.164996 0.24463,183.508095 c 0.17889,134.1849 -0.007,184.84416 -0.69435,188.47896 -1.63151,8.63693 -7.09974,15.63409 -15.29138,19.56688 l -4.97087,2.3865 -154.51133,0 -154.51133,0 -4.970871,-2.3865 z"
   id="path3010"
   inkscape:connector-curvature="0" /><path
   style="fill:#e34125;fill-opacity:1"
   d="m 160.72492,157.46068 c 0,-3.56574 3.17397,-14.40092 5.66266,-19.33098 4.61151,-9.13536 11.09687,-14.22087 23.46822,-18.40265 8.52984,-2.88326 11.99818,-4.5964 15.05959,-7.43846 4.72664,-4.38797 5.00658,-5.66338 5.57098,-25.381147 0.4781,-16.703004 0.69507,-18.689048 2.59567,-23.759708 6.99205,-18.654269 23.6656,-30.505664 42.91796,-30.505664 19.25236,0 35.9259,11.851395 42.91796,30.505664 1.9006,5.07066 2.11757,7.056704 2.59568,23.759708 0.58089,20.294117 0.77514,21.077597 6.51056,26.259207 2.38601,2.15562 5.67696,3.74556 12.36663,5.97466 13.78113,4.59206 20.62661,9.72639 25.31613,18.98787 2.31783,4.57756 5.56812,15.86198 5.56812,19.3315 l 0,1.93867 -95.27508,0 -95.27508,0 0,-1.93867 z M 263.02519,90.397964 c 9.27416,-5.252599 9.27416,-19.1265 0,-24.379099 -12.41449,-7.031175 -26.24591,6.800255 -19.21474,19.214734 2.39052,4.22078 7.26329,7.0317 12.18955,7.0317 2.34065,0 4.95521,-0.694966 7.02519,-1.867335 z"
   id="path3012"
   inkscape:connector-curvature="0" /><path
   style="fill:#e34125;fill-opacity:1"
   d="m 144.15534,199.99482 0,-7.45631 55.92233,0 55.92233,0 0,7.45631 0,7.45631 -55.92233,0 -55.92233,0 0,-7.45631 z"
   id="path3014"
   inkscape:connector-curvature="0" /><path
   style="fill:#e34125;fill-opacity:1"
   d="m 144.15534,248.0466 0,-7.45631 103.55987,0 103.55987,0 0,7.45631 0,7.45631 -103.55987,0 -103.55987,0 0,-7.45631 z"
   id="path3016"
   inkscape:connector-curvature="0" /><path
   style="fill:#e34125;fill-opacity:1"
   d="m 144.15534,296.09838 0,-7.45631 79.53398,0 79.53398,0 0,7.45631 0,7.45631 -79.53398,0 -79.53398,0 0,-7.45631 z"
   id="path3018"
   inkscape:connector-curvature="0" /><path
   style="fill:#e34125;fill-opacity:1"
   d="m 144.15534,344.15016 0,-7.45631 87.81877,0 87.81877,0 0,7.45631 0,7.45631 -87.81877,0 -87.81877,0 0,-7.45631 z"
   id="path3020"
   inkscape:connector-curvature="0" /><path
   style="fill:#e34125;fill-opacity:1"
   d="m 144.15534,392.20194 0,-7.45631 64.20712,0 64.20712,0 0,7.45631 0,7.45631 -64.20712,0 -64.20712,0 0,-7.45631 z"
   id="path3022"
   inkscape:connector-curvature="0" /><path
   style="fill:#e34125;fill-opacity:1"
   d="m 161.28475,156.29256 c 0.82306,-5.61183 5.20417,-17.6695 7.78096,-21.41473 4.90558,-7.13002 8.80487,-9.77899 22.62411,-15.36964 5.41128,-2.18916 11.09711,-4.94014 12.63517,-6.11328 4.85891,-3.70607 5.3976,-5.70371 6.23284,-23.113427 0.96845,-20.18616 1.67087,-24.41252 5.27049,-31.711888 14.07429,-28.540069 51.82654,-33.950188 73.25998,-10.498586 5.10441,5.585036 9.76934,14.835366 10.81135,21.438376 0.43144,2.733981 1.12557,12.081425 1.54251,20.772098 0.85408,17.802257 1.36508,19.554007 6.86656,23.539267 1.85297,1.34227 7.28984,3.95495 12.08193,5.80594 4.79211,1.85099 10.29135,4.29046 12.22055,5.42104 9.42447,5.52311 15.36667,15.88945 18.14763,31.65907 l 0.47483,2.69255 -95.20229,0 -95.20228,0 0.45566,-3.10679 z M 263.46474,90.428479 c 4.91632,-3.346022 6.20516,-5.884185 6.20516,-12.220065 0,-4.463294 -0.37073,-6.178199 -1.73313,-8.016917 -5.90313,-7.966975 -17.42085,-8.229341 -23.29297,-0.530596 -2.24857,2.948021 -3.39221,9.101994 -2.41503,12.995367 0.724,2.884659 4.52447,7.167678 7.51656,8.470953 4.10687,1.788838 10.54627,1.460873 13.71941,-0.698742 l 0,0 z"
   id="path3024"
   inkscape:connector-curvature="0" /><path
   style="fill:#e34125;fill-opacity:1"
   d="m 161.28475,156.29256 c 0.82306,-5.61183 5.20417,-17.6695 7.78096,-21.41473 4.90558,-7.13002 8.80487,-9.77899 22.62411,-15.36964 5.41128,-2.18916 11.09711,-4.94014 12.63517,-6.11328 4.85891,-3.70607 5.3976,-5.70371 6.23284,-23.113427 0.96732,-20.16252 1.67178,-24.414342 5.24595,-31.662243 16.54385,-33.548501 63.83383,-33.577713 80.36791,-0.04964 3.59961,7.299368 4.30203,11.525727 5.27047,31.711887 0.85205,17.759885 1.37225,19.559205 6.78924,23.483245 1.81043,1.31147 7.29608,3.95405 12.19034,5.8724 11.4307,4.48038 15.06865,6.65238 19.61869,11.71311 5.24024,5.82841 8.73089,14.08624 10.7184,25.35656 l 0.47483,2.69255 -95.20229,0 -95.20228,0 0.45566,-3.10679 z M 264.03761,90.116498 c 4.47108,-3.338139 5.63229,-5.793243 5.63229,-11.908084 0,-6.106918 -1.1622,-8.570677 -5.60906,-11.890744 -3.11276,-2.32401 -10.27789,-2.791636 -14.20689,-0.927202 -5.92295,2.810625 -9.32168,10.506411 -7.62518,17.2658 0.71778,2.859894 4.50432,7.150149 7.51656,8.516484 3.57927,1.623536 11.48561,1.039227 14.29228,-1.056254 l 0,0 z"
   id="path3026"
   inkscape:connector-curvature="0" /><path
   style="fill:#e34125;fill-opacity:1"
   d="m 160.38979,155.87832 c 1.44544,-11.42206 7.62628,-24.28241 14.01091,-29.15221 1.59159,-1.21396 2.8938,-2.00182 2.8938,-1.7508 0,0.25103 0.75923,-0.30282 1.68718,-1.23077 0.92794,-0.92795 2.04639,-1.46517 2.48543,-1.19383 0.43905,0.27135 0.79826,0.17711 0.79826,-0.20941 0,-0.38653 4.04853,-2.113 8.99674,-3.8366 5.23821,-1.82461 10.26402,-4.17842 12.03023,-5.63427 5.4437,-4.48716 5.75979,-5.75569 6.36637,-25.548747 0.49719,-16.223337 0.73682,-18.35778 2.68629,-23.927169 6.5842,-18.810233 24.2374,-31.580922 43.655,-31.580922 19.4653,0 37.50064,13.271391 43.90903,32.31068 1.54369,4.58627 1.89451,8.027442 2.36494,23.197411 0.49064,15.821567 0.74099,18.135017 2.24004,20.699837 2.74226,4.69191 7.80495,7.87801 17.82193,11.21581 5.0936,1.69725 9.92943,3.75426 10.74629,4.57111 0.81686,0.81686 1.64625,1.32414 1.8431,1.12729 0.19686,-0.19686 2.3404,1.59355 4.76342,3.97866 5.25279,5.17058 9.1874,13.10203 11.09842,22.37236 0.72402,3.51218 1.31639,6.96073 1.31639,7.66343 0,1.14388 -10.06567,1.27765 -96.13209,1.27765 l -96.1321,0 0.55042,-4.34951 0,0 z M 264.02971,89.160274 c 3.68969,-2.62729 5.48748,-6.958519 5.05467,-12.177681 -0.6622,-7.985213 -6.14569,-12.535618 -14.29204,-11.86006 -4.46111,0.36995 -7.23684,1.915844 -10.0238,5.582578 -1.21192,1.5945 -1.60996,3.449576 -1.60996,7.503303 0,6.19438 1.82226,9.592599 6.39435,11.924408 3.76707,1.921245 11.10513,1.428276 14.47678,-0.972548 z"
   id="path3032"
   inkscape:connector-curvature="0" /><path
   style="fill:#e34125;fill-opacity:1"
   d="m 97.045081,477.79283 c -4.406146,-1.7908 -12.82849,-9.06263 -12.017078,-10.37552 0.221715,-0.35875 0.03342,-0.65226 -0.418425,-0.65226 -0.801616,0 -1.80263,-2.16489 -1.681013,-3.63553 0.03347,-0.40471 -0.366588,-1.00003 -0.889015,-1.3229 -0.522428,-0.32288 -1.184551,-2.41505 -1.471384,-4.64927 C 79.620273,449.774 79.421574,94.041753 80.361902,87.881977 c 0.968709,-6.345684 4.004172,-13.044506 6.797463,-15.001004 1.021112,-0.715214 1.558601,-1.30039 1.194421,-1.30039 -1.172939,0 3.94744,-3.914412 7.633739,-5.835819 1.966144,-1.024812 5.126685,-2.07216 7.023415,-2.32744 1.89673,-0.25528 20.22531,-0.480261 40.73016,-0.499958 l 37.28155,-0.03581 -0.0974,8.28479 c -0.0536,4.556634 -0.2856,9.216829 -0.51562,10.355987 -0.23003,1.139159 -0.46581,2.470111 -0.52396,2.957671 -0.0582,0.487561 -1.45065,2.457701 -3.09443,4.37809 -3.88761,4.541798 -8.46064,6.902527 -11.99987,6.194681 -1.91151,-0.382303 -2.49943,-0.262073 -2.07518,0.424377 0.44184,0.714907 -4.6204,0.958129 -19.96179,0.95909 -23.00184,0.0014 -24.60173,0.326296 -28.21053,5.728091 l -1.89045,2.82971 0.21698,167.50259 c 0.18203,140.51976 0.40014,167.72327 1.35402,168.87256 0.62537,0.75348 0.81844,1.36997 0.42904,1.36997 -0.3894,0 0.7766,1.02524 2.59111,2.27832 l 3.29912,2.27831 135.45631,0 135.45631,0 2.89968,-2.07119 c 1.59482,-1.13916 3.04262,-2.63043 3.21732,-3.31392 0.17471,-0.6835 0.62449,-2.73398 0.99952,-4.55663 0.37503,-1.82266 0.69811,-77.13721 0.71795,-167.36568 0.0348,-158.11971 -0.0194,-164.15518 -1.4978,-166.91185 -3.29542,-6.144666 -3.52448,-6.198498 -27.54623,-6.473817 -15.47606,-0.177376 -21.34708,-0.50401 -20.93861,-1.164924 0.39401,-0.63751 -0.24818,-0.755273 -2.09951,-0.385007 -3.53923,0.707846 -8.11226,-1.652883 -11.99987,-6.194681 -1.64378,-1.920389 -3.03627,-3.890529 -3.09443,-4.37809 -0.0582,-0.48756 -0.29393,-1.818512 -0.52396,-2.957671 -0.23002,-1.139158 -0.46205,-5.799353 -0.51562,-10.355987 l -0.0974,-8.28479 37.28155,0.03581 c 20.50485,0.0197 38.83343,0.244678 40.73016,0.499958 1.89673,0.25528 5.05727,1.302628 7.02342,2.32744 3.6863,1.921407 8.80667,5.835819 7.63373,5.835819 -0.36418,0 0.17331,0.585176 1.19442,1.30039 2.79329,1.956498 5.82876,8.65532 6.79747,15.001004 0.94033,6.159776 0.74163,361.892023 -0.20626,369.275373 -0.28684,2.23422 -0.94896,4.32639 -1.47139,4.64927 -0.52243,0.32287 -0.92249,0.91819 -0.88902,1.3229 0.12163,1.47064 -0.87939,3.63553 -1.681,3.63553 -0.45186,0 -0.63107,0.3082 -0.39826,0.68489 0.2328,0.37669 -1.52871,2.55198 -3.91448,4.83398 -7.98758,7.64017 8.49029,6.93418 -166.65406,7.14026 l -154.91619,0.18229 -4.462359,-1.81364 z"
   id="path3034"
   inkscape:connector-curvature="0" /><path
   style="fill:#e34125;fill-opacity:1"
   d="m 144.15534,199.99482 0,-8.28479 55.92233,0 55.92233,0 0,8.28479 0,8.28479 -55.92233,0 -55.92233,0 0,-8.28479 z"
   id="path3036"
   inkscape:connector-curvature="0" /><path
   style="fill:#e34125;fill-opacity:1"
   d="m 144.15534,248.0466 0,-8.28479 103.97411,0 103.97411,0 0,8.28479 0,8.28479 -103.97411,0 -103.97411,0 0,-8.28479 z"
   id="path3038"
   inkscape:connector-curvature="0" /><path
   style="fill:#e34125;fill-opacity:1"
   d="m 144.15534,296.09838 0,-8.28479 79.94822,0 79.94822,0 0,8.28479 0,8.28479 -79.94822,0 -79.94822,0 0,-8.28479 z"
   id="path3040"
   inkscape:connector-curvature="0" /><path
   style="fill:#e34125;fill-opacity:1"
   d="m 144.15534,344.15016 0,-8.28479 87.81877,0 87.81877,0 0,8.28479 0,8.28479 -87.81877,0 -87.81877,0 0,-8.28479 z"
   id="path3042"
   inkscape:connector-curvature="0" /><path
   style="fill:#e34125;fill-opacity:1"
   d="m 144.15534,392.20702 0,-8.28987 64.65136,0 64.65136,0 -0.23712,8.07767 -0.23712,8.07767 -64.41424,0.2122 -64.41424,0.2122 0,-8.28987 z"
   id="path3044"
   inkscape:connector-curvature="0" /><path
   style="fill:#e34125;fill-opacity:1"
   d="M 96.517799,477.69511 C 87.204702,473.16119 81.686639,465.5226 80.253459,455.18058 79.820819,452.0586 79.598502,372.86948 79.726604,267.515 L 79.94822,85.250485 82.514363,79.865372 c 3.213659,-6.743943 7.812184,-11.503105 14.096209,-14.588623 l 4.878098,-2.395196 40.08817,-0.264353 40.08817,-0.264354 -0.39615,10.206101 c -0.27439,7.069302 -0.80222,10.989125 -1.71738,12.753799 -1.59581,3.077144 -7.29751,8.364984 -10.37796,9.624672 -1.30632,0.53419 -11.70191,1.151119 -25.01818,1.484711 -24.97813,0.625739 -25.68741,0.765133 -29.38333,5.774661 l -2.09887,2.84486 0.10189,82.06559 c 0.056,45.13607 0.33565,120.65198 0.62136,167.81315 0.56406,93.10798 0.25993,87.74168 5.13583,90.62194 2.06296,1.21861 14.47411,1.33922 137.8149,1.33922 l 135.54776,0 3.09464,-2.83566 3.09462,-2.83566 0.64408,-38.38117 c 0.35423,-21.10964 0.54064,-96.54039 0.41424,-167.62388 -0.22334,-125.58962 -0.27486,-129.33342 -1.82244,-132.45144 -0.98794,-1.99048 -2.56984,-3.617041 -4.16655,-4.284189 -1.70849,-0.71385 -10.22647,-1.341851 -25.33297,-1.867712 -12.51745,-0.435735 -23.76477,-1.194126 -24.99402,-1.685313 -3.06057,-1.222948 -8.77326,-6.509475 -10.37796,-9.60378 -0.91516,-1.764674 -1.44299,-5.684497 -1.71738,-12.753799 l -0.39615,-10.206101 40.08817,0.264354 40.08817,0.264353 4.8781,2.395196 c 6.28403,3.085518 10.88255,7.84468 14.09621,14.588623 l 2.56614,5.385113 0.22162,182.264515 c 0.1281,105.35448 -0.0942,184.5436 -0.52686,187.66558 -0.99989,7.21531 -3.46074,12.16178 -8.58784,17.26207 -8.08544,8.04316 7.68568,7.33752 -167.98718,7.51617 l -153.68285,0.15628 -4.970871,-2.41999 0,0 z"
   id="path3046"
   inkscape:connector-curvature="0" /></svg>